#!OML:ASF F:\VICON\USERDATA\INSTALL\rory3\rory3.ASF
:FULLY-SPECIFIED
:DEGREES
47
root -0.44406800639537886 18.407147068791232 -2.6100845901550267 5.241417943924303 1.8163821773152544 -3.034932342960721
lfemur -28.66404314204928 0.4456019626596801 -21.05956146931946
ltibia 17.49784074327038
lfoot 5.765982479936024 -14.391964315613256
ltoes -22.373328326603428
rfemur 10.047196380348787 8.965863560352386 35.17296969412682
rtibia 32.198861088099704
rfoot 28.346383184713165 -4.165532850588102
rtoes 22.448894763888166
lowerback 1.0 0.693938323566275 2.1958192125027085
upperback -2.088278231556766 2.863205194482325 0.4465852108150712
thorax -9.52507948125114 0.9405535690153903 0.024747467463135497
lowerneck -22.645147722073933 -5.651260600875738 -1.5060372131739639
upperneck 16.302334649319242 -6.189261568869908 1.2699011646862932
head 8.782715857020635 -2.9300051683053727 0.0658896885917134
lclavicle 3.327881721493576e-14 2.1031522249038494e-14
lhumerus -67.3011342906903 -4.038641600327244 93.17026606576752
lradius 111.89436744464892
lwrist 43.88478340674402
lhand -25.557350453438776 -0.4404957115025364
lfingers nan
lthumb 0.9599657733347575 29.42593633340504
rclavicle 3.478782781360977e-14 2.165331463560854e-14
rhumerus -51.387746951978116 16.30743842325392 -105.69273441566585
rradius 131.61254289968068
rwrist -34.38920007152967
rhand -20.398293643633238 1.0
rfingers nan
rthumb 5.80971744725127 -3.5075871749052414
48
root -0.45500728960663855 18.37011788159252 -2.160965924323226 4.881437907802335 1.783953958248002 -3.109862093120838
lfemur -27.699495880163326 0.8411408493422583 -21.52860335324265
ltibia 17.14555472164772
lfoot 7.336479696617201 -13.462535201583318
ltoes -19.782956541273016
rfemur 9.200024356838615 8.758100978445263 35.1462847373529
rtibia 36.52183128267714
rfoot 28.399306635498263 -5.904976891815895
rtoes 23.631889170273475
lowerback 1.0 0.5899844540403779 2.104407013757042
upperback -1.7967323786819949 2.800570150022972 0.386926624711982
thorax -9.446737923420374 0.9046038336347761 -0.011593190020324995
lowerneck -22.660020424993384 -5.598237285772802 -1.4501035915138385
upperneck 15.435520786562591 -6.138680116063882 1.3179900415326518
head 8.480213289790408 -2.8739019669968866 0.11984250893455228
lclavicle -8.904912654612393e-14 -1.4541532338318375e-14
lhumerus -66.880373347425 -3.9605499795041244 93.051372425679
lradius 112.38681761399233
lwrist 44.6582613534265
lhand -27.595608111829716 -1.125737361679386
lfingers nan
lthumb -1.0342532340525668 28.712976755034205
rclavicle -8.816986894345016e-14 -1.4066875361759527e-14
rhumerus -51.68554775252746 15.966275046239264 -106.09889091165535
rradius 130.93515084480597
rwrist -33.01077499451711
rhand -20.544035014213545 1.0
rfingers nan
rthumb 5.588161937107429 -5.591054916807405
49
root -0.47841972634628205 18.31958545118462 -1.0650143920337412 4.445119680030576 2.120535848804889 -3.0053421465511
lfemur -26.87951964784888 1.2613435921197473 -22.127824324563946
ltibia 17.432316653169494
lfoot 8.112043852384922 -13.78256048660644
ltoes -18.183509283191736
rfemur 8.24592249621358 8.301491903041633 35.13991390694924
rtibia 41.08645154945427
rfoot 28.883898681397042 -7.896665664622471
rtoes 24.171947685485346
lowerback 1.0 0.39828619305710883 1.775231088622562
upperback -1.3616052660635014 2.6020540268038967 0.37848906562516205
thorax -9.420428827855167 0.811636684615421 0.09165829629245809
lowerneck -23.289898631882387 -5.407996384213146 -1.5426252981927489
upperneck 14.802637356084892 -5.946352676552275 1.4836069819483075
head 8.388428422717453 -2.749583861268591 0.23975927847338724
lclavicle -4.711550777481549e-14 -5.412586216234715e-15
lhumerus -66.21463473915249 -3.875509815640738 93.04490695872187
lradius 112.99357726296223
lwrist 45.71725748051054
lhand -30.240077918334727 -0.37609106035042095
lfingers nan
lthumb -3.6124956521837404 29.395751683296073
rclavicle -4.635358585426985e-14 -5.421518767660212e-15
rhumerus -51.64865305569501 15.680757469741543 -105.79612240288218
rradius 130.01669004156471
rwrist -33.11811165933034
rhand -19.877832018355946 1.0
rfingers nan
rthumb 6.27453284523821 -4.6736381330688666
50
root -0.5057168032170561 18.259225796900658 -0.1632529391989861 3.9312515127003698 2.891302652259138 -2.6791942014673378
lfemur -25.997536191383453 1.330112547993973 -22.86263457473881
ltibia 17.925494135618152
lfoot 8.831593683850741 -15.03600955252168
ltoes -18.25998743918754
rfemur 6.954490000673978 7.114596817472363 34.521537919499835
rtibia 45.84746166456557
rfoot 29.788855196874295 -9.87870912878654
rtoes 25.719841915439897
lowerback 1.0 0.15395245354427844 1.3622279353381417
upperback -0.9963738860203133 2.3222808878684678 0.2123095778550006
thorax -9.886631179253428 0.6731568194541456 0.16123890924594086
lowerneck -24.06409931401908 -5.26581283728061 -1.50973381828654
upperneck 14.401685585357145 -5.8583171929689355 1.5775031667839672
head 8.391556855866341 -2.6702680857222303 0.28197278924213026
lclavicle -3.001884900311119e-14 -3.108575178996209e-14
lhumerus -65.32072659933868 -4.069224761068549 93.11603049405171
lradius 113.42085753017544
lwrist 46.80370724011058
lhand -30.12805243057473 -0.34227369874516467
lfingers nan
lthumb -3.5092429373491125 29.406131709301828
rclavicle -2.860122239475767e-14 -3.042489191700406e-14
rhumerus -51.68654392756285 15.12237299487093 -105.49871252516674
rradius 128.95131071601244
rwrist -32.06647121698201
rhand -19.073938383664046 1.0
rfingers nan
rthumb 7.118073087461998 -3.4595592421968426
